<?xml version="1.0" encoding="utf-8"?>
<!-- Generator: Adobe Illustrator 25.2.3, SVG Export Plug-In . SVG Version: 6.00 Build 0)  -->
<svg version="1.1" xmlns="http://www.w3.org/2000/svg" xmlns:xlink="http://www.w3.org/1999/xlink" x="0px" y="0px"
	 viewBox="0 0 1366 768" style="enable-background:new 0 0 1366 768;" xml:space="preserve">
<style type="text/css">
	.st0{fill:url(#SVGID_1_);stroke:#000000;stroke-miterlimit:10;}
	.st1{fill:none;stroke:#000000;stroke-miterlimit:10;}
	.st2{stroke:#000000;stroke-miterlimit:10;}
	.st3{fill:none;stroke:#3F2EFF;stroke-miterlimit:10;}
	.st4{fill:#FFFFFF;}
	.st5{fill:url(#SVGID_2_);}
	.st6{fill:url(#SVGID_3_);}
	.st7{fill:#F2F2F2;stroke:#000000;stroke-miterlimit:10;}
	.st8{fill:url(#SVGID_4_);stroke:#000000;stroke-miterlimit:10;}
</style>
<g id="Layer_2">
	<radialGradient id="SVGID_1_" cx="683" cy="383.5" r="554.051" gradientUnits="userSpaceOnUse">
		<stop  offset="0" style="stop-color:#FFFFFF"/>
		<stop  offset="1" style="stop-color:#55C7FF"/>
	</radialGradient>
	<rect y="-0.5" class="st0" width="1366" height="768"/>
</g>
<g id="Layer_1">
	<g>
		<line class="st1" x1="-12" y1="471.5" x2="1365.5" y2="470.5"/>
		<line x1="-12" y1="471.5" x2="1365.5" y2="470.5"/>
	</g>
	<rect x="734.5" y="19.5" class="st2" width="55" height="451"/>
	<rect x="891.5" y="206.5" class="st2" width="52" height="264"/>
	<rect x="999.5" y="330.5" class="st2" width="323" height="141"/>
	<rect x="485.5" y="303.5" class="st2" width="225" height="168"/>
	<path class="st2" d="M699.5,324.5c-69.67,0-139.33,0-209,0c2.29-2.11,20.14-19.13,18-45c-1.62-19.64-13.73-31.89-17-35
		c73.33-0.33,146.67-0.67,220-1c-7.62,6.2-17.61,16.4-21,31c-6.86,29.53,16.84,61.59,16,62C706.29,336.6,704.94,334.61,699.5,324.5z
		"/>
	<rect x="808.5" y="295.5" class="st2" width="63" height="176"/>
	<rect x="268.5" y="206.5" class="st2" width="72" height="264"/>
	<path class="st2" d="M198.5,471.5h-53c3.67-64.33,7.33-128.67,11-193c4.33-75.92,7.44-151.96,8-228c0,0,0.23-30.96,2-31
		c1.72-0.04,3.26,38.02,6,38c0.73-0.01,1.28-2.72,2-7c3.12-18.42,3.68-30.99,4-31c2.46-0.09,12,259,12,259
		C193.61,362.93,196.62,430.71,198.5,471.5z"/>
	<rect x="198.5" y="116.5" class="st2" width="52" height="355"/>
	<rect x="22.5" y="206.5" class="st2" width="111" height="264"/>
	<rect x="1019.5" y="170.5" class="st2" width="56" height="191"/>
	<ellipse class="st2" cx="1182" cy="328" rx="57.5" ry="97.5"/>
	<polygon class="st2" points="844.5,330.5 839.5,330.5 839.5,107.06 839.5,37.5 844.5,37.5 	"/>
	<polygon class="st2" points="817.5,144.5 865.14,144.5 854.5,95.5 829.47,95.5 	"/>
	<polygon class="st2" points="817.5,160.56 865.5,160.5 865.14,144.5 817.5,144.5 	"/>
	<polyline class="st2" points="829.47,95.5 834.5,78.5 849.28,78.5 854.5,95.5 	"/>
	<polyline class="st2" points="829.47,255.02 854.5,255.02 854.5,258.32 829.47,258.32 	"/>
	<rect x="758.79" class="st2" width="3.21" height="19.5"/>
	<g id="XMLID_4_">
		<g>
			<path d="M1313.05,230.5v100l-302.55,5c-0.22-35-0.43-70-0.65-105h71.65h225.55H1313.05z"/>
		</g>
		<g>
			<path class="st3" d="M1313.05,330.5v-100h-6H1081.5h-71.65c0.22,35,0.43,70,0.65,105"/>
			<line class="st1" x1="1307.05" y1="230.5" x2="1307.05" y2="194.5"/>
			<line class="st1" x1="1297.8" y1="194.5" x2="1307.05" y2="194.5"/>
		</g>
	</g>
	<path class="st2" d="M1112.18,165.18v2.64v4.43v58.24h-22.46v-60v-2.67v-7.27c22.78-1.06,22.78-1.06,22.78-1.06
		S1111.87,151.87,1112.18,165.18z"/>
	<path class="st2" d="M532.5,193.5"/>
	<g id="XMLID_1_">
		<g>
			<path d="M537.5,190.11c41.1-0.39,82.21-0.78,123.31-1.17v4.56c0,0,0.02-1.83,0.04-4.57c15.22-0.14,30.43-0.28,45.65-0.43
				c-2.42,2.34-5.9,5.76-10,10c-7,8-13.89,14.35-16,18c-5.86,10.13-1.9,18.95-1,34c0.62,10.39-0.09,25.68-7,45h-144
				c-8.74-18.04-9.36-32.08-8-42c2.14-15.58,9.85-25.89,4-36c-2.11-3.64-3.93-3.73-14-13c-6.14-5.65-10.88-10.61-14-14
				C510.17,190.37,523.83,190.24,537.5,190.11z"/>
			<path class="st4" d="M661.45,168.33c-0.18,0.03-0.35,0.07-0.53,0.1c0-0.03,0-0.07,0-0.1H661.45z"/>
			<path d="M660.92,168.43c0.06,4.88-0.01,14.71-0.07,20.5c-0.01,0.01-0.03,0.01-0.04,0.01v-20.49
				C660.85,168.45,660.88,168.44,660.92,168.43z"/>
			<path class="st4" d="M660.92,168.33c0,0.03,0,0.07,0,0.1c-0.04,0.01-0.07,0.02-0.11,0.02v-0.11L660.92,168.33z"/>
			<path d="M660.92,168.33l-0.11,0.01v-2.84C660.87,165.5,660.9,166.59,660.92,168.33z"/>
			<path d="M660.81,188.94c0.01,0,0.03,0,0.04-0.01c-0.02,2.74-0.04,4.57-0.04,4.57V188.94z"/>
			<path d="M660.81,168.45v20.49c-41.1,0.39-82.21,0.78-123.31,1.17v-20.74c30.89,9.39,63.78,8.4,95.42,3.87
				c1.09-0.16,2.19-0.32,3.28-0.49C644.43,171.51,652.64,170.04,660.81,168.45z"/>
			<radialGradient id="SVGID_2_" cx="599.8728" cy="172.4147" r="43.1853" gradientUnits="userSpaceOnUse">
				<stop  offset="0" style="stop-color:#FFFFFF"/>
				<stop  offset="1" style="stop-color:#55C7FF"/>
			</radialGradient>
			<path class="st5" d="M643.65,170.73c0.66-0.08,1.3-0.18,1.91-0.3c0.51-0.05,0.98-0.16,1.41-0.32c0.44-0.11,0.87-0.24,1.31-0.38
				c0.81,0.07,1.54-0.04,2.2-0.27c0.1,0.01,0.21,0.01,0.31,0.01c0.9,0,1.67-0.18,2.35-0.49c0.23,0.03,0.48,0.05,0.73,0.05
				c1.05,0,1.94-0.24,2.68-0.66l4.26-0.03v0.11c-8.17,1.59-16.38,3.06-24.61,4.3l-0.01-0.04c0.81-0.14,1.59-0.47,2.26-0.93
				c0.09-0.02,0.17-0.05,0.26-0.08c1.11-0.39,2.16-0.59,3.24-0.75c0.22-0.01,0.44-0.04,0.65-0.09
				C642.94,170.82,643.29,170.78,643.65,170.73z"/>
			<radialGradient id="SVGID_3_" cx="599.3367" cy="172.4609" r="43.8211" gradientUnits="userSpaceOnUse">
				<stop  offset="0" style="stop-color:#FFFFFF"/>
				<stop  offset="1" style="stop-color:#55C7FF"/>
			</radialGradient>
			<path class="st6" d="M604.92,174.81c1.69,0.08,3.22-0.27,4.76-0.87c3.86,0.42,7.7,0.73,11.59,0.28c1.55-0.18,3.06-0.5,4.56-0.84
				c0.61,0.24,1.27,0.38,1.95,0.39c1.83,0.02,3.48-0.39,5.11-1.01c0.82,0.02,1.65,0.03,2.49,0.02c0.27,0,0.54-0.03,0.81-0.07
				l0.01,0.04c-1.09,0.17-2.19,0.33-3.28,0.49c-31.64,4.53-64.53,5.52-95.42-3.87l3.99-0.03c0.81,0.55,1.82,0.9,3.06,0.9
				c0.17,0,0.35-0.01,0.51-0.02c0.77,0.49,1.74,0.79,2.9,0.79c0.1,0,0.19,0,0.28-0.01c0.57,0.25,1.22,0.41,1.96,0.44
				c0.64,0.29,1.36,0.44,2.2,0.45c1.3,0.38,2.63,0.68,3.97,1.05c1.72,0.47,3.42,0.6,5.12,0.63c0.84,0.67,1.95,1.08,3.32,1.08
				c0.75,0,1.43-0.12,2.02-0.35c0.17-0.04,0.33-0.08,0.48-0.13c0.42,0.1,0.87,0.15,1.35,0.15c0.18,0,0.36-0.01,0.53-0.02
				c2.9,0.98,5.92,1.22,8.97,0.66c2.09,0.33,4.2,0.55,6.3,0.44c1.47-0.08,2.83-0.35,4.17-0.7c0.56,0.17,1.2,0.25,1.93,0.19
				c0.73,0.41,1.61,0.64,2.65,0.64c0.72,0,1.37-0.11,1.94-0.32c0.69,0.34,1.51,0.54,2.46,0.54c1.38,0,2.48-0.42,3.32-1.09
				c0.14,0,0.29,0,0.43-0.01c0.36-0.03,0.73-0.03,1.09-0.02c0.15,0.01,0.3,0.02,0.45,0.02C603.57,174.7,604.24,174.78,604.92,174.81
				z"/>
		</g>
		<g>
			<path class="st1" d="M660.85,188.93c15.22-0.14,30.43-0.28,45.65-0.43c-2.42,2.34-5.9,5.76-10,10c-7,8-13.89,14.35-16,18
				c-5.86,10.13-1.9,18.95-1,34c0.62,10.39-0.09,25.68-7,45h-144c-8.74-18.04-9.36-32.08-8-42c2.14-15.58,9.85-25.89,4-36
				c-2.11-3.64-3.93-3.73-14-13c-6.14-5.65-10.88-10.61-14-14c13.67-0.13,27.33-0.26,41-0.39c41.1-0.39,82.21-0.78,123.31-1.17"/>
			<line class="st1" x1="537.5" y1="193.5" x2="537.5" y2="190.11"/>
			<line class="st1" x1="537.5" y1="190.11" x2="537.5" y2="169.37"/>
			<line class="st1" x1="537.5" y1="165.5" x2="537.5" y2="169.37"/>
			<path class="st1" d="M660.81,168.45v20.49v4.56c0,0,0.02-1.83,0.04-4.57c0.06-5.79,0.13-15.62,0.07-20.5"/>
			<path class="st1" d="M660.92,168.33c-0.02-1.74-0.05-2.83-0.11-2.83v2.84"/>
			<path class="st1" d="M537.5,169.37c30.89,9.39,63.78,8.4,95.42,3.87c1.09-0.16,2.19-0.32,3.28-0.49
				c8.23-1.24,16.44-2.71,24.61-4.3c0.04,0,0.07-0.01,0.11-0.02c0.18-0.03,0.35-0.07,0.53-0.1"/>
		</g>
	</g>
	<path class="st2" d="M602.5,112.5"/>
	<path class="st2" d="M633.5,263.5"/>
	<path class="st2" d="M522.5,212.5"/>
	<path class="st2" d="M528.5,212.5"/>
	<path class="st2" d="M547.5,355.5"/>
	<line class="st2" x1="145.5" y1="127.5" x2="145.5" y2="127.5"/>
	<line class="st2" x1="841.5" y1="-1.5" x2="841.5" y2="41.5"/>
	<line class="st2" x1="829.5" y1="253.5" x2="829.5" y2="258.5"/>
	<line class="st2" x1="198.5" y1="225.5" x2="198.5" y2="249.5"/>
	<path class="st2" d="M166.5,40.5"/>
	<path class="st2" d="M162.5,19.5"/>
	<path class="st2" d="M223.5,39.5"/>
	<path class="st2" d="M357.5,168.5"/>
	<path class="st2" d="M379.5,133.5"/>
	<rect x="374.5" y="144.5" class="st2" width="65" height="35"/>
	<g id="XMLID_3_">
		<g>
			<path d="M439.5,320.5v151h-72c0-50.33,0-100.67,0-151H439.5z"/>
			<path d="M439.5,155.5v165h-72c0-38.33,0-76.67,0-115c0.33-0.33,0.67-0.67,1-1c-0.33,0-0.67,0-1,0c0-16.33,0-32.67,0-49
				C391.5,155.5,415.5,155.5,439.5,155.5z"/>
			<path d="M368.5,204.5c-0.33,0.33-0.67,0.67-1,1c0-0.16,0-0.31,0-0.47c0-0.18,0-0.35,0-0.53
				C367.83,204.5,368.17,204.5,368.5,204.5z"/>
			<path d="M367.5,320.5c0,50.33,0,100.67,0,151h-16c0.57-50.33,1.13-100.67,1.7-151H367.5z"/>
			<path d="M367.5,205.5c0,38.33,0,76.67,0,115h-14.3c0.43-38.67,0.87-77.33,1.3-116h1L367.5,205.5z"/>
			<path d="M367.5,205.03c0,0.16,0,0.31,0,0.47l-12-1c4,0,8,0,12,0C367.5,204.68,367.5,204.85,367.5,205.03z"/>
			<path d="M353.2,320.5c-0.57,50.33-1.13,100.67-1.7,151h-11v-151H353.2z"/>
		</g>
		<g>
			<path class="st1" d="M367.5,204.5c0-16.33,0-32.67,0-49c24,0,48,0,72,0v165"/>
			<path class="st1" d="M367.5,320.5c0-38.33,0-76.67,0-115"/>
			<path class="st1" d="M354.5,204.5c-0.43,38.67-0.87,77.33-1.3,116"/>
			<path class="st1" d="M367.5,205.5c0.33-0.33,0.67-0.67,1-1c-0.33,0-0.67,0-1,0c-4,0-8,0-12,0"/>
			<polygon class="st1" points="439.5,320.5 439.5,471.5 367.5,471.5 351.5,471.5 340.5,471.5 340.5,320.5 353.2,320.5 367.5,320.5 
							"/>
		</g>
	</g>
	<g id="XMLID_2_">
		<g>
			<polygon points="1297.8,194.5 1297.8,230.5 1283.5,230.5 1283.5,187.5 1297.8,187.5 			"/>
			<polygon points="1277.32,193.5 1277.32,230.5 1262.5,230.5 1262.5,179.5 1277.32,179.5 			"/>
			<polygon points="1253.54,170.5 1253.54,230.5 1239.5,230.5 1239.5,170.5 1242.97,170.5 			"/>
			<path d="M1228.44,189.62v40.88H1182v-40.88c3.2-3,6.4-6,9.6-9.01c2.97-2.78,5.93-5.57,8.9-8.35c3.15,0,6.29,0,9.44,0
				c2.99,2.8,6.37,5.98,7.03,6.59c0.11,0.11,0.22,0.21,0.33,0.32c0.25,0.24,0.88,0.82,1.71,1.6
				C1221.97,183.55,1227.58,188.82,1228.44,189.62z"/>
			<path d="M1219.08,180.69l-0.07,0.08c-0.83-0.78-1.46-1.36-1.71-1.6c-0.11-0.11-0.22-0.21-0.33-0.32
				c-0.66-0.61-4.04-3.79-7.03-6.59c0-0.11,0-10.93,0-11.04c0-0.03,0-3.47,0-5.71C1212.83,162.38,1218.27,180.1,1219.08,180.69z"/>
			<path d="M1209.94,155.5L1209.94,155.5c0,2.25,0,5.69,0,5.72c0,0.11,0,10.93,0,11.04c-2.22-2.08-4.21-3.95-4.72-4.43
				c-1.57,1.48-3.15,2.95-4.72,4.43V156.5v-25c3.15,0,6.29,0,9.44,0c0,7.37,0,14.75,0,22.12
				C1209.94,153.63,1209.94,154.43,1209.94,155.5z"/>
			<path d="M1209.94,172.26c-3.15,0-6.29,0-9.44,0c1.57-1.48,3.15-2.95,4.72-4.43C1205.73,168.31,1207.72,170.18,1209.94,172.26z"/>
			<path d="M1200.5,156.5v15.76c-2.97,2.78-5.93,5.57-8.9,8.35l-0.1-0.11C1194.83,172.5,1197.17,164.5,1200.5,156.5z"/>
			<rect x="1145.5" y="194.5" width="20.85" height="36"/>
		</g>
		<g>
			<rect x="1145.5" y="194.5" class="st1" width="20.85" height="36"/>
			<path class="st1" d="M1200.5,172.26c-2.97,2.78-5.93,5.57-8.9,8.35c-3.2,3.01-6.4,6.01-9.6,9.01v40.88h46.44v-40.88
				c-0.86-0.8-6.47-6.07-9.43-8.85c-0.83-0.78-1.46-1.36-1.71-1.6c-0.11-0.11-0.22-0.21-0.33-0.32c-0.66-0.61-4.04-3.79-7.03-6.59"
				/>
			<path class="st1" d="M1209.94,155.51c0,2.24,0,5.68,0,5.71c0,0.11,0,10.93,0,11.04c-3.15,0-6.29,0-9.44,0V156.5v-25
				c3.15,0,6.29,0,9.44,0"/>
			<path class="st1" d="M1209.94,131.5c0,7.37,0,14.75,0,22.12c0,0.01,0,0.81,0,1.88"/>
			<line class="st1" x1="1210" y1="131.5" x2="1209.94" y2="131.5"/>
			<polygon class="st1" points="1239.5,170.5 1239.5,230.5 1253.54,230.5 1253.54,170.5 1242.97,170.5 			"/>
			<polygon class="st1" points="1262.5,179.5 1262.5,230.5 1277.32,230.5 1277.32,193.5 1277.32,179.5 			"/>
			<polygon class="st1" points="1283.5,187.5 1283.5,230.5 1297.8,230.5 1297.8,194.5 1297.8,187.5 			"/>
			<path class="st1" d="M1200.5,156.5c-3.33,8-5.67,16-9,24"/>
			<polyline class="st1" points="1209.5,155.5 1209.94,155.5 1210.5,155.5 			"/>
			<path class="st1" d="M1209.5,154.5c0.14,0.3,0.28,0.63,0.44,1v0.01c2.89,6.87,8.33,24.59,9.14,25.18
				c0.09,0.05,0.13-0.08,0.1-0.44"/>
		</g>
	</g>
	<circle class="st7" cx="1205.5" cy="230.5" r="9"/>
	<rect x="1322.5" y="367.5" class="st2" width="11" height="103"/>
	<rect x="1294.5" y="194.5" class="st2" width="13" height="39"/>
	<rect x="-0.5" y="470.5" class="st2" width="1366" height="7"/>
	<linearGradient id="SVGID_4_" gradientUnits="userSpaceOnUse" x1="-0.5" y1="621" x2="1365.5" y2="621">
		<stop  offset="0" style="stop-color:#FF7BAC"/>
		<stop  offset="1" style="stop-color:#FF7BAC;stop-opacity:0"/>
	</linearGradient>
	<rect x="-0.5" y="474.5" class="st8" width="1366" height="293"/>
</g>
</svg>
