<?xml version="1.0" encoding="utf-8"?>
<!-- Generator: Adobe Illustrator 25.2.3, SVG Export Plug-In . SVG Version: 6.00 Build 0)  -->
<svg version="1.1" xmlns="http://www.w3.org/2000/svg" xmlns:xlink="http://www.w3.org/1999/xlink" x="0px" y="0px"
	 viewBox="0 0 1366 768" style="enable-background:new 0 0 1366 768;" xml:space="preserve">
<style type="text/css">
	.st0{fill:url(#SVGID_1_);stroke:#000000;stroke-miterlimit:10;}
	.st1{fill:none;stroke:#000000;stroke-miterlimit:10;}
	.st2{stroke:#000000;stroke-miterlimit:10;}
	.st3{fill:none;stroke:#3F2EFF;stroke-miterlimit:10;}
	.st4{fill:#FFFFFF;}
	.st5{fill:url(#SVGID_2_);}
	.st6{fill:url(#SVGID_3_);}
	.st7{fill:#F2F2F2;stroke:#000000;stroke-miterlimit:10;}
	.st8{fill:url(#SVGID_4_);stroke:#000000;stroke-miterlimit:10;}
	.st9{stroke:#000000;stroke-width:0.75;stroke-miterlimit:10;}
	.st10{fill:#FFFFFF;stroke:#000000;stroke-width:0.75;stroke-miterlimit:10;}
</style>
<g id="Layer_2">
	<radialGradient id="SVGID_1_" cx="683" cy="383.5" r="554.051" gradientUnits="userSpaceOnUse">
		<stop  offset="0" style="stop-color:#FFFFFF"/>
		<stop  offset="1" style="stop-color:#55C7FF"/>
	</radialGradient>
	<rect y="-0.5" class="st0" width="1366" height="768"/>
</g>
<g id="Layer_1">
	<g>
		<line class="st1" x1="-12" y1="428.73" x2="1366" y2="428.21"/>
		<line x1="-12" y1="428.73" x2="1366" y2="428.21"/>
	</g>
	<rect x="734.77" y="192" class="st2" width="55.02" height="236.21"/>
	<rect x="891.83" y="289.94" class="st2" width="52.02" height="138.27"/>
	<rect x="999.87" y="354.88" class="st2" width="323.12" height="73.85"/>
	<rect x="485.68" y="340.74" class="st2" width="225.08" height="87.99"/>
	<path class="st2" d="M699.76,351.74c-69.69,0-139.38,0-209.08,0c2.29-1.11,20.14-10.02,18.01-23.57
		c-1.62-10.29-13.73-16.7-17.01-18.33c73.36-0.17,146.72-0.35,220.08-0.52c-7.63,3.25-17.61,8.59-21.01,16.24
		c-6.86,15.46,16.84,32.26,16.01,32.47C706.55,358.08,705.2,357.04,699.76,351.74z"/>
	<rect x="808.8" y="336.55" class="st2" width="63.02" height="92.18"/>
	<rect x="268.6" y="289.94" class="st2" width="72.03" height="138.27"/>
	<path class="st2" d="M198.58,428.73h-53.02c3.67-33.69,7.34-67.39,11-101.08c4.33-39.76,7.44-79.59,8-119.41
		c0,0,0.23-16.22,2-16.24c1.72-0.02,3.27,19.91,6,19.9c0.73,0,1.28-1.43,2-3.67c3.12-9.65,3.68-16.23,4-16.24
		c2.46-0.05,12,135.65,12,135.65C193.68,371.87,196.69,407.37,198.58,428.73z"/>
	<rect x="198.58" y="242.8" class="st2" width="52.02" height="185.93"/>
	<rect x="22.51" y="289.94" class="st2" width="111.04" height="138.27"/>
	<rect x="1019.87" y="271.08" class="st2" width="56.02" height="100.04"/>
	<ellipse class="st2" cx="1182.43" cy="353.58" rx="57.52" ry="51.07"/>
	<polygon class="st2" points="844.81,354.88 839.81,354.88 839.81,237.86 839.81,201.43 844.81,201.43 	"/>
	<polygon class="st2" points="817.8,257.47 865.46,257.47 854.81,231.8 829.77,231.8 	"/>
	<polygon class="st2" points="817.8,265.88 865.82,265.85 865.46,257.47 817.8,257.47 	"/>
	<polyline class="st2" points="829.77,231.8 834.81,222.9 849.6,222.9 854.81,231.8 	"/>
	<polyline class="st2" points="829.77,315.35 854.81,315.35 854.81,317.08 829.77,317.08 	"/>
	<rect x="759.07" y="181.79" class="st2" width="3.21" height="10.21"/>
	<g id="XMLID_4_">
		<g>
			<path d="M1313.53,302.51v52.37l-302.66,2.62c-0.22-18.33-0.43-36.66-0.65-54.99h71.68h225.63H1313.53z"/>
		</g>
		<g>
			<path class="st3" d="M1313.53,354.88v-52.37h-6H1081.9h-71.68c0.22,18.33,0.43,36.66,0.65,54.99"/>
			<line class="st1" x1="1307.53" y1="302.51" x2="1307.53" y2="283.65"/>
			<line class="st1" x1="1298.28" y1="283.65" x2="1307.53" y2="283.65"/>
		</g>
	</g>
	<path class="st2" d="M1090.12,265.88v36.63h22.47V268.3c-0.06-1.38-0.09-2.33-0.09-2.97
		C1111.36,265.36,1106.98,265.47,1090.12,265.88z"/>
	<path class="st2" d="M532.7,283.13"/>
	<g id="XMLID_1_">
		<g>
			<path d="M537.7,281.36c41.11-0.2,82.24-0.41,123.35-0.61v2.39c0,0,0.02-0.96,0.04-2.39c15.23-0.07,30.44-0.15,45.67-0.23
				c-2.42,1.23-5.9,3.02-10,5.24c-7,4.19-13.9,7.52-16.01,9.43c-5.86,5.31-1.9,9.93-1,17.81c0.62,5.44-0.09,13.45-7,23.57H528.7
				c-8.74-9.45-9.36-16.8-8-22c2.14-8.16,9.85-13.56,4-18.85c-2.11-1.91-3.93-1.95-14.01-6.81c-6.14-2.96-10.88-5.56-14.01-7.33
				C510.36,281.49,524.02,281.42,537.7,281.36z"/>
			<path class="st4" d="M661.69,269.95c-0.18,0.02-0.35,0.04-0.53,0.05c0-0.02,0-0.04,0-0.05H661.69z"/>
			<path d="M661.16,270c0.06,2.56-0.01,7.7-0.07,10.74c-0.01,0.01-0.03,0.01-0.04,0.01v-10.73
				C661.09,270.01,661.12,270.01,661.16,270z"/>
			<path class="st4" d="M661.16,269.95c0,0.02,0,0.04,0,0.05c-0.04,0.01-0.07,0.01-0.11,0.01v-0.06L661.16,269.95z"/>
			<path d="M661.16,269.95l-0.11,0.01v-1.49C661.11,268.47,661.14,269.04,661.16,269.95z"/>
			<path d="M661.05,280.74c0.01,0,0.03,0,0.04-0.01c-0.02,1.44-0.04,2.39-0.04,2.39V280.74z"/>
			<path d="M661.05,270.01v10.73c-41.11,0.2-82.24,0.41-123.35,0.61v-10.86c30.9,4.92,63.8,4.4,95.45,2.03
				c1.09-0.08,2.19-0.17,3.28-0.26C644.67,271.61,652.88,270.84,661.05,270.01z"/>
			<radialGradient id="SVGID_2_" cx="600.0947" cy="272.0876" r="31.259" gradientUnits="userSpaceOnUse">
				<stop  offset="0" style="stop-color:#FFFFFF"/>
				<stop  offset="1" style="stop-color:#55C7FF"/>
			</radialGradient>
			<path class="st5" d="M661.05,269.95v0.06c-8.17,0.83-16.39,1.6-24.62,2.25l-0.01-0.02c0.81-0.07,1.59-0.25,2.26-0.49
				c0.09-0.01,0.17-0.03,0.26-0.04c1.11-0.2,2.16-0.31,3.24-0.39c0.22-0.01,0.44-0.02,0.65-0.05c0.34-0.02,0.69-0.04,1.05-0.07
				c0.66-0.04,1.3-0.09,1.91-0.16c0.51-0.03,0.98-0.08,1.41-0.17c0.44-0.06,0.87-0.13,1.31-0.2c0.81,0.04,1.54-0.02,2.2-0.14
				c0.1,0.01,0.21,0.01,0.31,0.01c0.9,0,1.67-0.09,2.35-0.26c0.23,0.02,0.48,0.03,0.73,0.03c1.05,0,1.94-0.13,2.68-0.35
				L661.05,269.95z"/>
			<radialGradient id="SVGID_3_" cx="599.5585" cy="272.1118" r="31.7193" gradientUnits="userSpaceOnUse">
				<stop  offset="0" style="stop-color:#FFFFFF"/>
				<stop  offset="1" style="stop-color:#55C7FF"/>
			</radialGradient>
			<path class="st6" d="M636.43,272.24l0.01,0.02c-1.09,0.09-2.19,0.17-3.28,0.26c-31.65,2.37-64.55,2.89-95.45-2.03l3.99-0.02
				c0.81,0.29,1.82,0.47,3.06,0.47c0.17,0,0.35-0.01,0.51-0.01c0.77,0.26,1.74,0.41,2.9,0.41c0.1,0,0.19,0,0.28-0.01
				c0.57,0.13,1.22,0.21,1.96,0.23c0.64,0.15,1.36,0.23,2.2,0.24c1.3,0.2,2.63,0.36,3.97,0.55c1.72,0.25,3.42,0.31,5.12,0.33
				c0.84,0.35,1.95,0.57,3.32,0.57c0.75,0,1.43-0.06,2.02-0.18c0.17-0.02,0.33-0.04,0.48-0.07c0.42,0.05,0.87,0.08,1.35,0.08
				c0.18,0,0.36-0.01,0.53-0.01c2.9,0.51,5.92,0.64,8.97,0.35c2.09,0.17,4.2,0.29,6.3,0.23c1.47-0.04,2.83-0.18,4.17-0.37
				c0.56,0.09,1.2,0.13,1.93,0.1c0.73,0.21,1.61,0.34,2.65,0.34c0.72,0,1.37-0.06,1.94-0.17c0.69,0.18,1.51,0.28,2.46,0.28
				c1.38,0,2.48-0.22,3.32-0.57c0.14,0,0.29,0,0.43-0.01c0.36-0.02,0.73-0.02,1.09-0.01c0.15,0.01,0.3,0.01,0.45,0.01
				c0.67,0.02,1.34,0.06,2.02,0.08c1.69,0.04,3.22-0.14,4.76-0.46c3.86,0.22,7.7,0.38,11.59,0.15c1.55-0.09,3.06-0.26,4.56-0.44
				c0.61,0.13,1.27,0.2,1.95,0.2c1.83,0.01,3.48-0.2,5.11-0.53c0.82,0.01,1.65,0.02,2.49,0.01
				C635.88,272.28,636.16,272.26,636.43,272.24z"/>
		</g>
		<g>
			<path class="st1" d="M661.09,280.74c15.23-0.07,30.44-0.15,45.67-0.23c-2.42,1.23-5.9,3.02-10,5.24c-7,4.19-13.9,7.52-16.01,9.43
				c-5.86,5.31-1.9,9.93-1,17.81c0.62,5.44-0.09,13.45-7,23.57H528.7c-8.74-9.45-9.36-16.8-8-22c2.14-8.16,9.85-13.56,4-18.85
				c-2.11-1.91-3.93-1.95-14.01-6.81c-6.14-2.96-10.88-5.56-14.01-7.33c13.67-0.07,27.34-0.14,41.01-0.2
				c41.11-0.2,82.24-0.41,123.35-0.61"/>
			<line class="st1" x1="537.7" y1="283.13" x2="537.7" y2="281.36"/>
			<line class="st1" x1="537.7" y1="281.36" x2="537.7" y2="270.49"/>
			<line class="st1" x1="537.7" y1="268.47" x2="537.7" y2="270.49"/>
			<path class="st1" d="M661.05,270.01v10.73v2.39c0,0,0.02-0.96,0.04-2.39c0.06-3.03,0.13-8.18,0.07-10.74"/>
			<path class="st1" d="M661.16,269.95c-0.02-0.91-0.05-1.48-0.11-1.48v1.49"/>
			<path class="st1" d="M537.7,270.49c30.9,4.92,63.8,4.4,95.45,2.03c1.09-0.08,2.19-0.17,3.28-0.26
				c8.23-0.65,16.45-1.42,24.62-2.25c0.04,0,0.07-0.01,0.11-0.01c0.18-0.02,0.35-0.04,0.53-0.05"/>
		</g>
	</g>
	<path class="st2" d="M602.72,240.71"/>
	<path class="st2" d="M633.73,319.79"/>
	<path class="st2" d="M522.69,293.08"/>
	<path class="st2" d="M528.7,293.08"/>
	<path class="st2" d="M547.7,367.98"/>
	<line class="st2" x1="145.56" y1="248.56" x2="145.56" y2="248.56"/>
	<line class="st2" x1="841.81" y1="181" x2="841.81" y2="203.52"/>
	<line class="st2" x1="829.81" y1="314.56" x2="829.81" y2="317.17"/>
	<line class="st2" x1="198.58" y1="299.89" x2="198.58" y2="312.46"/>
	<path class="st2" d="M166.56,203"/>
	<path class="st2" d="M162.56,192"/>
	<path class="st2" d="M223.59,202.47"/>
	<path class="st2" d="M357.63,270.04"/>
	<path class="st2" d="M379.64,251.71"/>
	<rect x="374.64" y="257.47" class="st2" width="65.02" height="18.33"/>
	<g id="XMLID_3_">
		<g>
			<path d="M439.66,349.65v79.09h-72.03c0-26.36,0-52.73,0-79.09H439.66z"/>
			<path d="M439.66,263.23v86.42h-72.03c0-20.08,0-40.16,0-60.23c0.33-0.17,0.67-0.35,1-0.52c-0.33,0-0.67,0-1,0
				c0-8.55,0-17.11,0-25.66C391.65,263.23,415.66,263.23,439.66,263.23z"/>
			<path d="M368.64,288.89c-0.33,0.17-0.67,0.35-1,0.52c0-0.08,0-0.16,0-0.25c0-0.09,0-0.18,0-0.28
				C367.97,288.89,368.31,288.89,368.64,288.89z"/>
			<path d="M367.64,349.65c0,26.36,0,52.73,0,79.09h-16.01c0.57-26.36,1.13-52.73,1.7-79.09H367.64z"/>
			<path d="M367.64,289.42c0,20.08,0,40.16,0,60.23h-14.31c0.43-20.25,0.87-40.5,1.3-60.75h1L367.64,289.42z"/>
			<path d="M367.64,289.17c0,0.08,0,0.16,0,0.25l-12-0.52c4,0,8,0,12,0C367.64,288.99,367.64,289.08,367.64,289.17z"/>
			<path d="M353.33,349.65c-0.57,26.36-1.13,52.73-1.7,79.09h-11v-79.09H353.33z"/>
		</g>
		<g>
			<path class="st1" d="M367.64,288.89c0-8.55,0-17.11,0-25.66c24.01,0,48.02,0,72.03,0v86.42"/>
			<path class="st1" d="M367.64,349.65c0-20.08,0-40.16,0-60.23"/>
			<path class="st1" d="M354.63,288.89c-0.43,20.25-0.87,40.5-1.3,60.75"/>
			<path class="st1" d="M367.64,289.42c0.33-0.17,0.67-0.35,1-0.52c-0.33,0-0.67,0-1,0c-4,0-8,0-12,0"/>
			<polygon class="st1" points="439.66,349.65 439.66,428.73 367.64,428.73 351.63,428.73 340.63,428.73 340.63,349.65 
				353.33,349.65 367.64,349.65 			"/>
		</g>
	</g>
	<g id="XMLID_2_">
		<g>
			<polygon points="1298.28,283.65 1298.28,302.51 1283.97,302.51 1283.97,279.99 1298.28,279.99 			"/>
			<polygon points="1277.79,283.13 1277.79,302.51 1262.96,302.51 1262.96,275.8 1277.79,275.8 			"/>
			<polygon points="1254,271.08 1254,302.51 1239.95,302.51 1239.95,271.08 1243.43,271.08 			"/>
			<path d="M1228.89,281.1v21.41h-46.46V281.1c3.2-1.57,6.4-3.14,9.6-4.72c2.97-1.46,5.93-2.92,8.9-4.37c3.15,0,6.29,0,9.44,0
				c2.99,1.47,6.37,3.13,7.03,3.45c0.11,0.06,0.22,0.11,0.33,0.17c0.25,0.13,0.88,0.43,1.71,0.84
				C1222.42,277.92,1228.03,280.68,1228.89,281.1z"/>
			<path d="M1219.53,276.42l-0.07,0.04c-0.83-0.41-1.46-0.71-1.71-0.84c-0.11-0.06-0.22-0.11-0.33-0.17
				c-0.66-0.32-4.04-1.99-7.03-3.45c0-0.06,0-5.72,0-5.78c0-0.02,0-1.82,0-2.99C1213.27,266.83,1218.72,276.11,1219.53,276.42z"/>
			<path d="M1210.38,263.23L1210.38,263.23c0,1.18,0,2.98,0,3c0,0.06,0,5.72,0,5.78c-2.22-1.09-4.21-2.07-4.72-2.32
				c-1.57,0.78-3.15,1.55-4.72,2.32v-8.25v-13.09c3.15,0,6.29,0,9.44,0c0,3.86,0,7.73,0,11.59
				C1210.38,262.25,1210.38,262.67,1210.38,263.23z"/>
			<path d="M1210.38,272.01c-3.15,0-6.29,0-9.44,0c1.57-0.78,3.15-1.55,4.72-2.32C1206.17,269.94,1208.16,270.92,1210.38,272.01z"/>
			<path d="M1200.94,263.75v8.25c-2.97,1.46-5.93,2.92-8.9,4.37l-0.1-0.06C1195.27,272.13,1197.61,267.94,1200.94,263.75z"/>
			<rect x="1145.92" y="283.65" width="20.86" height="18.85"/>
		</g>
		<g>
			<rect x="1145.92" y="283.65" class="st1" width="20.86" height="18.85"/>
			<path class="st1" d="M1200.94,272.01c-2.97,1.46-5.93,2.92-8.9,4.37c-3.2,1.58-6.4,3.15-9.6,4.72v21.41h46.46V281.1
				c-0.86-0.42-6.47-3.18-9.43-4.64c-0.83-0.41-1.46-0.71-1.71-0.84c-0.11-0.06-0.22-0.11-0.33-0.17c-0.66-0.32-4.04-1.99-7.03-3.45
				"/>
			<path class="st1" d="M1210.38,263.23c0,1.17,0,2.97,0,2.99c0,0.06,0,5.72,0,5.78c-3.15,0-6.29,0-9.44,0v-8.25v-13.09
				c3.15,0,6.29,0,9.44,0"/>
			<path class="st1" d="M1210.38,250.66c0,3.86,0,7.73,0,11.59c0,0.01,0,0.42,0,0.98"/>
			<line class="st1" x1="1210.44" y1="250.66" x2="1210.38" y2="250.66"/>
			<polygon class="st1" points="1239.95,271.08 1239.95,302.51 1254,302.51 1254,271.08 1243.43,271.08 			"/>
			<polygon class="st1" points="1262.96,275.8 1262.96,302.51 1277.79,302.51 1277.79,283.13 1277.79,275.8 			"/>
			<polygon class="st1" points="1283.97,279.99 1283.97,302.51 1298.28,302.51 1298.28,283.65 1298.28,279.99 			"/>
			<path class="st1" d="M1200.94,263.75c-3.33,4.19-5.67,8.38-9,12.57"/>
			<polyline class="st1" points="1209.94,263.23 1210.38,263.23 1210.94,263.23 			"/>
			<path class="st1" d="M1209.94,262.7c0.14,0.16,0.28,0.33,0.44,0.52v0.01c2.89,3.6,8.33,12.88,9.14,13.19
				c0.09,0.03,0.13-0.04,0.1-0.23"/>
		</g>
	</g>
	<ellipse class="st7" cx="1205.94" cy="302.51" rx="9" ry="4.71"/>
	<rect x="1322.98" y="374.26" class="st2" width="11" height="53.95"/>
	<rect x="1294.97" y="283.65" class="st2" width="13" height="20.43"/>
	<rect x="-0.5" y="428.21" class="st2" width="1366.5" height="3.67"/>
	<linearGradient id="SVGID_4_" gradientUnits="userSpaceOnUse" x1="-0.4958" y1="614.37" x2="1365.9996" y2="614.37">
		<stop  offset="0" style="stop-color:#FF7BAC"/>
		<stop  offset="1" style="stop-color:#FF7BAC;stop-opacity:0"/>
	</linearGradient>
	<rect x="-0.5" y="430.3" class="st8" width="1366.5" height="368.13"/>
	<rect x="-0.5" y="430.3" class="st9" width="1366.5" height="380.7"/>
	<rect x="981.5" y="1102.5" class="st9" width="1366" height="303"/>
	<ellipse class="st10" cx="1206.5" cy="301" rx="10" ry="10.5"/>
</g>
</svg>
